<svg width="96" height="96" viewBox="0 0 96 96" fill="none" xmlns="http://www.w3.org/2000/svg" preserveAspectRatio="xMidYMid meet">
<g transform="translate(0, 21) scale(0.09375)">
<path fill="#000000" opacity="1.000000" stroke="none" 
	d="
M751.845215,353.940369 
	C736.490356,364.477631 711.093872,364.006195 695.845764,353.021851 
	C693.501038,351.332733 691.863953,350.468597 688.896851,352.423645 
	C659.985962,371.473511 624.786560,360.459808 611.647339,328.426453 
	C610.785095,326.324158 609.997864,324.191071 608.928406,321.434875 
	C605.781616,327.087494 602.983826,332.133514 600.167480,337.169159 
	C583.463806,367.036102 558.581299,366.047821 535.169739,352.884125 
	C526.513977,348.017212 519.245544,341.407898 513.124878,333.562927 
	C512.427429,332.669006 511.968750,331.496887 510.129700,331.033783 
	C499.966919,345.990448 487.176392,358.143555 468.318848,361.128510 
	C449.947968,364.036438 432.978973,361.667328 421.311768,344.897034 
	C420.781372,345.177399 420.351746,345.254517 420.247650,345.481110 
	C414.802704,357.337067 404.467377,360.925598 392.573944,361.898773 
	C374.989594,363.337555 359.173279,360.361481 349.101929,343.865967 
	C344.470398,336.280121 342.831726,327.731171 342.763458,318.978607 
	C342.591797,296.982666 342.758301,274.983978 342.557129,252.988510 
	C342.518280,248.741806 344.042297,247.354950 348.069366,247.640900 
	C351.385315,247.876373 354.731720,247.676285 358.064606,247.681427 
	C365.311127,247.692627 365.331573,247.695801 365.336639,254.732529 
	C365.350677,274.229980 365.355499,293.727448 365.341919,313.224915 
	C365.338654,317.918335 366.025208,322.523651 367.227966,327.029572 
	C369.701965,336.297943 374.174286,339.894684 383.788544,340.909515 
	C391.540649,341.727844 398.662628,340.429596 405.037933,335.644714 
	C410.219452,331.755859 412.772217,326.764587 412.749725,320.246399 
	C412.674316,298.416138 412.720612,276.585510 412.730499,254.755020 
	C412.733704,247.708740 412.748108,247.705750 419.994080,247.688202 
	C423.326965,247.680130 426.675812,247.891418 429.988770,247.634262 
	C434.143829,247.311737 435.457092,248.974976 435.419342,253.081116 
	C435.252167,271.243866 435.225403,289.410339 435.413513,307.572723 
	C435.491119,315.063110 436.307343,322.537811 439.357300,329.544617 
	C443.257019,338.503540 450.494720,342.298798 460.264923,341.169495 
	C473.225037,339.671448 482.408142,332.354919 490.926514,323.157501 
	C497.548676,316.007446 498.958313,309.845551 495.110657,300.011871 
	C485.047668,274.293243 483.074615,247.255753 487.758423,219.952164 
	C490.608856,203.336090 500.711609,192.735153 514.942749,190.568588 
	C531.849670,187.994675 546.357666,196.803207 551.201233,213.243332 
	C557.604858,234.978592 554.572449,256.099823 545.744934,276.577240 
	C540.921875,287.765289 534.866211,298.333252 528.367126,308.617523 
	C526.215759,312.021851 526.434448,314.432465 529.082275,317.431274 
	C534.383911,323.435669 539.774353,329.305908 545.844604,334.560455 
	C558.834412,345.804749 573.794006,344.113831 583.590759,329.762939 
	C593.601318,315.098785 599.320129,298.620850 602.629211,281.281403 
	C604.439697,271.794922 605.647644,262.209808 605.649597,252.538116 
	C605.650391,248.808640 607.141846,247.493347 610.729370,247.657425 
	C614.720459,247.839951 618.732422,247.833038 622.723999,247.655319 
	C626.170349,247.501892 627.426697,248.867493 627.388977,252.323959 
	C627.258301,264.320892 627.145508,276.324799 627.416992,288.317169 
	C627.631592,297.797333 628.538879,307.230896 631.236755,316.423615 
	C639.373352,344.148224 662.953674,344.942261 680.339661,336.228027 
	C683.092712,334.848145 683.015442,332.958740 682.756470,330.486816 
	C681.359497,317.153839 684.399963,305.642395 696.431824,297.908142 
	C704.261963,292.874847 713.029419,291.172150 722.109009,290.757660 
	C733.461487,290.239380 744.731384,291.293701 755.951599,292.973907 
	C756.910217,293.117432 757.890808,293.114685 758.821533,293.177246 
	C762.057373,280.474396 754.142761,269.393524 740.618469,267.307465 
	C724.853027,264.875763 709.418457,266.533386 694.184753,270.899628 
	C692.429016,271.402832 690.659607,271.861053 688.885437,272.294617 
	C688.593567,272.365967 688.243835,272.200867 686.855042,271.960846 
	C686.855042,266.147247 686.770386,260.102661 686.901794,254.062790 
	C686.946655,252.004501 688.925171,251.532944 690.490356,251.099838 
	C711.374329,245.321121 732.453674,243.538437 753.596130,249.305756 
	C771.359253,254.151230 781.946045,268.463531 782.275940,287.510803 
	C782.506775,300.838654 782.331726,314.173218 782.398254,327.504486 
	C782.408997,329.655029 782.525940,331.846619 782.954468,333.945587 
	C784.184631,339.971313 785.645203,341.304840 791.814331,340.853973 
	C796.076111,340.542511 797.612183,342.021729 797.288574,346.135132 
	C797.093079,348.619354 796.957947,351.174866 797.315247,353.622467 
	C798.103760,359.023651 795.148865,360.570862 790.559875,361.170990 
	C775.251160,363.172974 767.477966,358.192017 760.637756,341.504517 
	C758.602173,346.321167 756.024353,350.497162 751.845215,353.940369 
M753.315552,309.084381 
	C743.007263,309.157623 732.688416,308.966980 722.393494,309.376038 
	C711.425537,309.811859 705.175720,315.733734 705.269531,324.824036 
	C705.353271,332.942078 711.534546,339.509460 720.317871,340.681976 
	C725.456360,341.367920 730.644409,341.275909 735.746338,340.549866 
	C752.680603,338.139984 759.773071,330.129608 759.762939,314.371002 
	C759.760254,310.144470 758.286072,308.563263 753.315552,309.084381 
M531.102905,249.748718 
	C532.126221,241.467438 532.124634,233.151154 531.506226,224.860535 
	C531.301025,222.109161 530.364990,219.300934 529.230591,216.756058 
	C527.489624,212.850372 524.369324,210.402374 519.897705,210.397705 
	C515.588257,210.393204 513.463745,213.422913 511.844971,216.848053 
	C511.141754,218.335892 510.603394,219.947311 510.277313,221.560654 
	C507.145325,237.058014 507.651947,252.606735 509.910889,268.140289 
	C510.929779,275.146667 512.184937,282.130920 515.436646,289.775269 
	C523.828308,277.250305 529.997803,265.013580 531.102905,249.748718 
z"/>
<path fill="#000000" opacity="1.000000" stroke="none" 
	d="
M206.185028,340.693085 
	C200.582306,332.044678 198.338715,322.694794 197.775070,312.963196 
	C197.390640,306.325684 197.837769,299.644073 197.696198,292.986786 
	C197.617035,289.263733 198.799835,287.401825 202.850174,287.639923 
	C206.998840,287.883820 211.179703,287.835449 215.334244,287.646423 
	C218.952194,287.481812 220.309769,288.851501 220.364838,292.550415 
	C220.480927,300.349365 219.727493,308.160950 221.230118,315.952057 
	C224.130890,330.992432 234.064621,339.954895 249.368484,340.890839 
	C256.756805,341.342682 264.020935,341.112701 270.706635,337.300568 
	C280.310852,331.824371 283.715424,322.658081 285.662842,312.549164 
	C286.837311,306.452423 286.774689,300.301971 286.779541,294.147797 
	C286.799286,269.169281 286.788116,244.190735 286.823792,219.212234 
	C286.833771,212.216202 287.082611,212.018021 294.205383,211.970169 
	C297.535706,211.947800 300.877594,212.140808 304.193939,211.924606 
	C308.533569,211.641693 310.061432,213.474335 310.023499,217.768158 
	C309.880859,233.919540 310.050079,250.073410 309.979675,266.225800 
	C309.918762,280.203003 310.626129,294.199982 309.291901,308.150787 
	C307.835663,323.377563 303.957153,337.625397 292.312012,348.602051 
	C284.471985,355.991974 274.939056,359.612946 264.442566,360.739197 
	C247.702133,362.535370 231.517578,361.105713 216.971863,351.458313 
	C212.753143,348.660248 209.205872,345.203461 206.185028,340.693085 
z"/>
<path fill="#000000" opacity="1.000000" stroke="none" 
	d="
M610.760742,198.273651 
	C615.000854,197.469284 618.766846,197.637115 622.565430,198.547684 
	C630.744629,200.508301 635.074341,205.357452 635.245117,213.013123 
	C635.413269,220.552460 631.184204,225.582870 622.891479,227.707230 
	C618.945679,228.718033 614.912659,228.624893 610.973877,228.051315 
	C602.471008,226.813141 597.436951,221.339203 597.153259,213.499115 
	C596.878174,205.896774 601.389221,200.727982 610.760742,198.273651 
z"/>
</g>
</svg>
